<svg xmlns="http://www.w3.org/2000/svg" viewBox="0 0 116.73 71.19"><defs><style>.cls-1{fill:#066ab5;}.cls-2{fill:#fff;}</style></defs><g id="Logos"><rect class="cls-1" width="116.73" height="42.59"/><rect class="cls-2" x="44.46" y="29.17" width="27.62" height="1.16"/><rect class="cls-2" x="42.9" y="31.14" width="30.69" height="1.16"/><rect class="cls-2" x="41.45" y="33.11" width="33.64" height="1.16"/><rect class="cls-2" x="44.46" y="14.57" width="27.62" height="1.16"/><polygon class="cls-2" points="50.05 13.82 58.26 11.36 66.32 13.82 69.68 13.82 58.26 10.29 46.69 13.82 50.05 13.82"/><polygon class="cls-2" points="58.26 8.32 44.46 12.58 44.46 13.82 58.26 9.63 72.08 13.82 72.08 12.58 58.26 8.32"/><path class="cls-2" d="M46.08,27.67a.89.89,0,0,0,1,.87.82.82,0,0,0,.92-.87V16.43h-.72V27.7s0,.2-.26.2-.2-.26-.2-.26V16.43h-.73Z"/><polygon class="cls-2" points="50.63 28.54 51.21 28.54 51.21 21.26 51.93 28.54 52.54 28.54 52.54 16.43 51.93 16.43 51.93 22.9 51.21 16.43 50.63 16.43 50.63 28.54"/><polygon class="cls-2" points="55.23 28.54 57.08 28.54 57.08 27.9 56.04 27.9 56.04 22.43 56.82 22.43 56.82 21.76 56.04 21.76 56.04 17.04 56.82 17.04 56.82 16.43 55.23 16.43 55.23 28.54"/><path class="cls-2" d="M65.88,20V17.3a.9.9,0,0,0-.95-.87.87.87,0,0,0-.93.87V27.67a.85.85,0,0,0,.93.87.88.88,0,0,0,.95-.87v-3h-.72v3a.23.23,0,0,1-.23.23.27.27,0,0,1-.26-.23V17.3a.25.25,0,0,1,.26-.26c.23,0,.23.26.23.26V20Z"/><path class="cls-2" d="M69.79,27.67s0,.23-.26.23-.29-.23-.29-.23V17.3A.25.25,0,0,1,69.5,17a.27.27,0,0,1,.29.26Zm.7-10.37a.84.84,0,0,0-1-.87.9.9,0,0,0-1,.87V27.67a.88.88,0,0,0,1,.87.91.91,0,0,0,1-.87Z"/><path class="cls-2" d="M60.59,27.67s0,.23-.19.21a.21.21,0,0,1-.19-.21v-3h-.75v3a.84.84,0,0,0,.92.87.88.88,0,0,0,1-.87V25.05c0-1.42-1.13-4.13-1.13-5V17.3s0-.26.17-.26.21.26.21.26V20h.75V17.3a.84.84,0,0,0-.93-.87.89.89,0,0,0-.95.87v2.32c0,1.52,1.13,4.08,1.13,5.25Z"/><path class="cls-1" d="M94.21,65.17A4.59,4.59,0,1,1,91,57.32a4.53,4.53,0,0,1,3.22,1.33l.12.11,2.09-4.44-.08-.06a9.32,9.32,0,1,0,0,15.23l.08-.06-2.06-4.38Z"/><path class="cls-1" d="M107.42,52.58a9.31,9.31,0,1,0,9.3,9.31,9.32,9.32,0,0,0-9.3-9.31m0,13.93A4.58,4.58,0,1,1,112,61.93a4.58,4.58,0,0,1-4.58,4.58"/><path class="cls-1" d="M5.63,53.14v9.62a3.7,3.7,0,0,0,1,2.82A3.32,3.32,0,0,0,9,66.4a3.54,3.54,0,0,0,2.38-.82,3.82,3.82,0,0,0,.94-2.82V53.14h5.63V63.31c0,2-.19,3.87-1.95,5.59-2,1.95-4.93,2.27-7,2.27s-5.05-.32-7-2.27A6.65,6.65,0,0,1,0,63.66V53.14Z"/><path class="cls-1" d="M22.29,53.14h5.63v2.07a6.37,6.37,0,0,1,5.4-2.54,6.84,6.84,0,0,1,5,1.76,6.79,6.79,0,0,1,1.76,5.12v11H34.45v-9c0-1.13,0-2.58-.94-3.48a3,3,0,0,0-2.15-.78A3,3,0,0,0,29,58.3a4.46,4.46,0,0,0-1.1,3.32v9H22.29Z"/><path class="cls-1" d="M62.34,62.84h-13a4.72,4.72,0,0,0,1.06,3,3.76,3.76,0,0,0,2.89,1.09,4.67,4.67,0,0,0,2.27-.5A3.42,3.42,0,0,0,56.74,65l5.32.55a7.85,7.85,0,0,1-3.36,4.38,10.42,10.42,0,0,1-5.52,1.29c-2.62,0-4.92-.47-7-2.51a9.37,9.37,0,0,1-2.62-6.72,9.91,9.91,0,0,1,2.66-6.88A9.1,9.1,0,0,1,53,52.55a9.2,9.2,0,0,1,6.92,2.62,10,10,0,0,1,2.47,7.08Zm-5.21-3.37a4.45,4.45,0,0,0-1.13-2,4.12,4.12,0,0,0-5.51.16,3.86,3.86,0,0,0-1,1.87Z"/><path class="cls-1" d="M76.53,57.6a6.41,6.41,0,0,0-3.09-1,2.38,2.38,0,0,0-1.6.51,1.17,1.17,0,0,0-.35.78.9.9,0,0,0,.54.78,10.15,10.15,0,0,0,1.68.59l1.49.47a7.36,7.36,0,0,1,2.89,1.52,4.16,4.16,0,0,1,1.37,3.33,6.3,6.3,0,0,1-1.8,4.57,7.54,7.54,0,0,1-5.67,2,10.33,10.33,0,0,1-7.15-2.51l2.38-3.79a9.5,9.5,0,0,0,1.92,1.29,5.27,5.27,0,0,0,2.35.55,3.12,3.12,0,0,0,1.75-.39,1.49,1.49,0,0,0,.59-1.14,1.15,1.15,0,0,0-.62-1,7.57,7.57,0,0,0-1.72-.63l-1.41-.43a6.94,6.94,0,0,1-2.82-1.6A4.31,4.31,0,0,1,66,58.34a5.4,5.4,0,0,1,1.68-4A7.74,7.74,0,0,1,73,52.55,11,11,0,0,1,78.76,54Z"/></g></svg>