<svg xmlns="http://www.w3.org/2000/svg" viewBox="0 0 127.83 85.77"><defs><style>.cls-1{fill:none;stroke:#fff;stroke-linecap:round;stroke-linejoin:round;stroke-width:4px;}</style></defs><g id="Modules"><rect class="cls-1" x="2" y="2" width="123.83" height="81.77" rx="11" transform="translate(127.83 85.77) rotate(180)"/><rect class="cls-1" x="75.54" y="26.25" width="33.28" height="33.28" transform="translate(184.35 85.77) rotate(180)"/><line class="cls-1" x1="106.87" y1="59.53" x2="106.87" y2="70.17"/><line class="cls-1" x1="97.07" y1="59.53" x2="97.07" y2="70.17"/><line class="cls-1" x1="87.28" y1="59.53" x2="87.28" y2="70.17"/><line class="cls-1" x1="77.49" y1="59.53" x2="77.49" y2="70.17"/><line class="cls-1" x1="106.87" y1="15.61" x2="106.87" y2="26.25"/><line class="cls-1" x1="97.07" y1="15.61" x2="97.07" y2="26.25"/><line class="cls-1" x1="87.28" y1="15.61" x2="87.28" y2="26.25"/><line class="cls-1" x1="77.49" y1="15.61" x2="77.49" y2="26.25"/><line class="cls-1" x1="108.82" y1="28.2" x2="115.21" y2="28.2"/><line class="cls-1" x1="108.82" y1="37.99" x2="115.21" y2="37.99"/><line class="cls-1" x1="108.82" y1="47.78" x2="115.21" y2="47.78"/><line class="cls-1" x1="108.82" y1="57.58" x2="115.21" y2="57.58"/><polyline class="cls-1" points="75.54 37.99 53.21 37.99 46.98 35.28 22.47 35.28"/><circle class="cls-1" cx="22.16" cy="35.31" r="2.38"/><polyline class="cls-1" points="75.54 28.2 53.21 28.2 46.59 21.57 22.21 21.57"/><circle class="cls-1" cx="22.16" cy="21.59" r="2.38"/><polyline class="cls-1" points="75.54 57.58 53.21 57.58 46.59 64.2 22.21 64.2"/><circle class="cls-1" cx="22.16" cy="64.19" r="2.38"/><polyline class="cls-1" points="75.54 47.81 53.21 47.81 46.98 50.52 22.47 50.52"/><circle class="cls-1" cx="22.16" cy="50.49" r="2.38"/></g></svg>