<svg xmlns="http://www.w3.org/2000/svg" viewBox="0 0 104.54 156.23"><defs><style>.cls-1{fill:none;stroke:#fff;stroke-linecap:round;stroke-linejoin:round;stroke-width:4px;}</style></defs><g id="Modules"><rect class="cls-1" x="2" y="120.78" width="100.54" height="21.35" rx="6.65" transform="translate(104.54 262.91) rotate(180)"/><path class="cls-1" d="M19.22,34H31V48.54H19.22v52.67a3.74,3.74,0,0,1-3.74,3.73H5.74A3.73,3.73,0,0,1,2,101.21V37.75A3.73,3.73,0,0,1,5.74,34Z"/><circle class="cls-1" cx="50.75" cy="39.96" r="6.05"/><path class="cls-1" d="M47.06,56.72H62.72A3.73,3.73,0,0,0,66.46,53V5.74A3.73,3.73,0,0,0,62.72,2H50.8a3.73,3.73,0,0,0-3.74,3.74V23.43"/><line class="cls-1" x1="56.62" y1="57.69" x2="56.62" y2="88.99"/><line class="cls-1" x1="95.27" y1="154.23" x2="77.97" y2="154.23"/><line class="cls-1" x1="26.57" y1="154.23" x2="9.27" y2="154.23"/></g></svg>