<svg xmlns="http://www.w3.org/2000/svg" viewBox="0 0 114.09 166.97"><defs><style>.cls-1{fill:none;stroke:#fff;stroke-linecap:round;stroke-linejoin:round;stroke-width:4px;}</style></defs><g id="Modules"><path class="cls-1" d="M40.48,153.5l3.22-50A10.74,10.74,0,0,0,42.61,98L17.41,47.07l19.3-9.55,25.2,50.95a10.86,10.86,0,0,0,3.68,4.19L84,105l23.25,15.5a10.77,10.77,0,0,1-1.19,18.61L56,163.84A10.77,10.77,0,0,1,40.48,153.5Z"/><rect class="cls-1" x="10.56" y="42.33" width="33.04" transform="translate(70.12 68.27) rotate(153.68)"/><path class="cls-1" d="M73.33,97.81s-22.08,7-29.82,2.83"/><circle class="cls-1" cx="7.85" cy="19.34" r="5.85"/><circle class="cls-1" cx="24.98" cy="5.9" r="3.9"/><circle class="cls-1" cx="24.54" cy="26.27" r="1.34"/><circle class="cls-1" cx="65.41" cy="119.32" r="1.95"/><circle class="cls-1" cx="55.16" cy="146.15" r="3.9"/><circle class="cls-1" cx="84.92" cy="130.06" r="1.95"/></g></svg>