<svg xmlns="http://www.w3.org/2000/svg" viewBox="0 0 135.72 124.98"><defs><style>.cls-1{fill:#f6f7fb;}.cls-1,.cls-2,.cls-3,.cls-4,.cls-5,.cls-6,.cls-7,.cls-8{stroke:#305b90;stroke-linecap:round;stroke-linejoin:round;stroke-width:4px;}.cls-2{fill:#72c2e8;}.cls-3{fill:#dfe1ea;}.cls-4{fill:#33b66d;}.cls-5{fill:#fff;}.cls-6{fill:#f15f41;}.cls-7{fill:#94c93d;}.cls-8{fill:none;}</style></defs><g id="Home_Page_Breakdown" data-name="Home Page Breakdown"><path class="cls-1" d="M133.72,15V75.52H2V15A13,13,0,0,1,10.65,2.76,12.48,12.48,0,0,1,15,2H120.75A13,13,0,0,1,133.72,15Z"/><path class="cls-2" d="M133.72,75.52v8.65a13,13,0,0,1-13,13H15a13,13,0,0,1-13-13V75.52Z"/><polygon class="cls-3" points="90.11 122.98 45.61 122.98 54.52 97.03 81.2 97.03 90.11 122.98"/><path class="cls-3" d="M68.28,86.75h-.84a.43.43,0,1,1,0-.85h.84a.43.43,0,1,1,0,.85Z"/><path class="cls-4" d="M107.06,58.54a25.62,25.62,0,0,1-25.2,4.15l9-23.93Z"/><path class="cls-5" d="M90.87,38.76l-9,23.93a25.56,25.56,0,0,1-6.64-44.14Z"/><path class="cls-1" d="M114.8,29.74l-23.93,9L103,16.23A25.67,25.67,0,0,1,114.8,29.74Z"/><path class="cls-6" d="M103,16.23,90.87,38.76,75.22,18.55A25.54,25.54,0,0,1,103,16.23Z"/><path class="cls-7" d="M116.43,38.76a25.5,25.5,0,0,1-9.37,19.78L90.87,38.76l23.93-9A25.42,25.42,0,0,1,116.43,38.76Z"/><line class="cls-8" x1="19.29" y1="61.56" x2="51.27" y2="61.56"/><line class="cls-8" x1="19.29" y1="52.06" x2="51.27" y2="52.06"/><line class="cls-8" x1="19.29" y1="42.57" x2="51.27" y2="42.57"/><line class="cls-8" x1="19.29" y1="33.08" x2="26.73" y2="33.08"/><line class="cls-8" x1="35.55" y1="33.08" x2="42.99" y2="33.08"/><line class="cls-8" x1="19.29" y1="12.44" x2="59.34" y2="12.44"/></g></svg>