<svg xmlns="http://www.w3.org/2000/svg" xmlns:xlink="http://www.w3.org/1999/xlink" viewBox="0 0 153.03 152.6"><defs><style>.cls-1{fill:none;}.cls-2{isolation:isolate;}.cls-3{clip-path:url(#clip-path);}.cls-4{mix-blend-mode:multiply;}.cls-4,.cls-6{opacity:0.5;}.cls-5{clip-path:url(#clip-path-2);}.cls-7{fill:#72c2e8;}.cls-10,.cls-7,.cls-8,.cls-9{stroke:#305b90;stroke-linecap:round;stroke-linejoin:round;stroke-width:4px;}.cls-8{fill:#94c93d;}.cls-9{fill:#b0b0b0;}.cls-10{fill:#fff;}</style><clipPath id="clip-path"><rect class="cls-1" x="521.17" y="-1514.57" width="2044.76" height="2020.82"/></clipPath><clipPath id="clip-path-2"><path class="cls-1" d="M2565.93-1584.46v2526H521.17v-2526c256.64,34.91,619.78,56.69,1022.38,56.69S2309.29-1549.55,2565.93-1584.46Z"/></clipPath></defs><g class="cls-2"><g id="Home_Page_Breakdown" data-name="Home Page Breakdown"><path class="cls-7" d="M148,30.37H5a3,3,0,0,1-3-3V8A6,6,0,0,1,8,2H145a6,6,0,0,1,6,6V27.36A3,3,0,0,1,148,30.37Z"/><circle class="cls-8" cx="15.94" cy="16.18" r="3.7"/><circle class="cls-8" cx="36.13" cy="16.18" r="3.7"/><circle class="cls-8" cx="116.9" cy="16.18" r="3.7"/><circle class="cls-8" cx="137.09" cy="16.18" r="3.7"/><path class="cls-9" d="M143.33,30.37V125H131.1V48.77a6,6,0,0,0-6-6H28a6,6,0,0,0-6,6V125H9.69V30.37Z"/><path class="cls-8" d="M125.07,42.74h-5.51v64.37H33.47V42.74H28a6,6,0,0,0-6,6V125H131.1V48.77A6,6,0,0,0,125.07,42.74Z"/><path class="cls-7" d="M87.77,59H65.25a3,3,0,0,1-3-2.52L60,42.75H93l-2.25,13.7A3,3,0,0,1,87.77,59Z"/><path class="cls-9" d="M84.43,59H68.6v7.09a2.48,2.48,0,0,0,2.47,2.47H82a2.48,2.48,0,0,0,2.48-2.47V59Z"/><path class="cls-7" d="M145,140.11H8c-3.33,0-6-1.89-6-4.22v-8.77C2,126,3.35,125,5,125H148c1.67,0,3,.95,3,2.11v8.77C151,138.22,148.33,140.11,145,140.11Z"/><path class="cls-9" d="M26.15,150.6H11.23a1.81,1.81,0,0,1-1.8-1.81v-8.68H28v8.68A1.8,1.8,0,0,1,26.15,150.6Z"/><path class="cls-9" d="M141.79,150.6H126.88a1.81,1.81,0,0,1-1.81-1.81v-8.68H143.6v8.68A1.81,1.81,0,0,1,141.79,150.6Z"/><rect class="cls-8" x="52.63" y="10.01" width="47.78" height="12.35"/><polygon class="cls-10" points="65.86 110.6 55.25 116.73 55.25 104.47 65.86 110.6"/><polygon class="cls-10" points="97.78 104.47 97.78 116.73 97.76 116.74 87.15 110.61 87.15 110.59 97.76 104.46 97.78 104.47"/><polygon class="cls-7" points="108.41 86.05 108.4 86.05 97.78 92.17 97.78 92.19 97.76 92.18 87.15 98.31 87.15 98.33 87.13 98.32 76.51 104.45 76.51 104.47 76.51 116.73 87.13 110.6 87.15 110.59 97.76 104.46 97.78 104.45 97.78 104.47 97.78 116.73 108.4 110.6 108.41 110.59 108.41 98.33 108.4 98.32 108.41 98.31 108.41 86.05"/><polygon class="cls-8" points="97.78 79.92 97.76 79.91 87.15 86.03 87.15 86.05 87.13 86.05 76.51 92.18 76.51 92.19 76.5 92.18 65.88 86.05 65.87 86.05 55.25 79.92 55.23 79.91 44.62 86.03 44.62 86.05 55.23 92.18 55.25 92.18 55.25 92.19 65.86 98.32 65.88 98.31 65.88 98.33 76.5 104.46 76.51 104.45 87.13 98.32 87.15 98.31 97.76 92.18 97.78 92.17 108.4 86.05 97.78 79.92"/><polygon class="cls-9" points="76.5 104.46 65.88 98.33 65.86 98.32 55.25 92.19 55.23 92.18 44.62 86.05 44.62 98.31 44.62 98.34 44.62 110.59 44.62 110.61 55.23 116.74 55.25 116.73 55.25 104.47 55.23 104.46 55.25 104.45 55.25 104.47 65.86 110.6 65.88 110.59 65.88 110.61 76.5 116.74 76.51 116.73 76.51 104.47 76.5 104.46"/><line class="cls-9" x1="76.51" y1="68.53" x2="76.51" y2="77.69"/></g></g></svg>