<svg xmlns="http://www.w3.org/2000/svg" viewBox="0 0 98.05 98.03"><defs><style>.cls-1{fill:#94c93d;}</style></defs><g id="Image"><path class="cls-1" d="M1,39.28A49.84,49.84,0,0,0,1,58.75l11.19.67a35.8,35.8,0,0,0,3.45,8.32L8.16,76.12A49.26,49.26,0,0,0,21.93,89.87l8.36-7.44a36.42,36.42,0,0,0,8.34,3.46l.67,11.18a49.74,49.74,0,0,0,19.45,0l.67-11.18a36.26,36.26,0,0,0,8.32-3.46l8.38,7.44A49.09,49.09,0,0,0,89.87,76.11l-7.44-8.37a36.26,36.26,0,0,0,3.46-8.32l11.19-.67a49.34,49.34,0,0,0,0-19.47l-11.19-.67a36.26,36.26,0,0,0-3.46-8.32l7.44-8.36A48.9,48.9,0,0,0,76.11,8.16L67.74,15.6a35.8,35.8,0,0,0-8.32-3.45L58.75,1A49.74,49.74,0,0,0,39.3,1l-.67,11.18a36.26,36.26,0,0,0-8.32,3.46L21.93,8.16A49.26,49.26,0,0,0,8.16,21.91l7.44,8.38a35.8,35.8,0,0,0-3.45,8.32ZM49,30.4A18.62,18.62,0,1,1,30.4,49,18.64,18.64,0,0,1,49,30.4Z"/></g></svg>