<svg xmlns="http://www.w3.org/2000/svg" viewBox="0 0 23.59 23.21"><defs><style>.cls-1{fill:#fff;}</style></defs><g id="Logos"><path class="cls-1" d="M17.22,0H6.37A6.33,6.33,0,0,0,0,6.27V16.94a6.33,6.33,0,0,0,6.37,6.27H17.22a6.33,6.33,0,0,0,6.37-6.27V6.27A6.33,6.33,0,0,0,17.22,0ZM7.79,19.31a.26.26,0,0,1-.26.26H4.33a.26.26,0,0,1-.26-.26V9a.26.26,0,0,1,.26-.26h3.2A.26.26,0,0,1,7.79,9ZM5.93,7.87A2.12,2.12,0,1,1,8,5.76,2.11,2.11,0,0,1,5.93,7.87ZM19.77,19.31a.26.26,0,0,1-.25.26h-3.2a.26.26,0,0,1-.26-.26v-5c0-1.4-.1-2.47-1.41-2.47S13,12.5,13,14.22v5.09a.26.26,0,0,1-.25.26H9.54a.26.26,0,0,1-.26-.26V9a.26.26,0,0,1,.26-.26h3.07a.26.26,0,0,1,.25.26v.67A3.77,3.77,0,0,1,15.68,8.5c3.61,0,4.09,2.61,4.09,5.16Z"/></g></svg>