<svg id="bg" xmlns="http://www.w3.org/2000/svg" xmlns:xlink="http://www.w3.org/1999/xlink" viewBox="0 0 1954.41 2278.93"><defs><style>.cls-1,.cls-6{fill:none;}.cls-2{clip-path:url(#clip-path);}.cls-3{fill:#e8f2f5;}.cls-4{opacity:0.5;}.cls-5{isolation:isolate;}.cls-6{stroke:#fff;stroke-linecap:round;stroke-linejoin:round;stroke-width:3px;}</style><clipPath id="clip-path"><rect class="cls-1" width="1954.41" height="2278.93"/></clipPath></defs><g class="cls-2"><rect class="cls-3" width="1954.41" height="2278.93"/><g class="cls-4"><g class="cls-5"><polygon class="cls-6" points="-59.98 1174.03 196.29 1037.37 196.75 1199.07 -59.52 1335.73 -59.98 1174.03"/><polygon class="cls-6" points="-276.13 1049.24 -19.85 912.58 196.29 1037.37 -59.98 1174.03 -276.13 1049.24"/></g><g class="cls-5"><polygon class="cls-6" points="-61.19 752.33 195.09 615.66 195.55 777.36 -60.73 914.02 -61.19 752.33"/><polygon class="cls-6" points="-192.14 676.72 64.14 540.06 195.09 615.66 -61.19 752.33 -192.14 676.72"/></g><g class="cls-5"><polygon class="cls-6" points="73.69 991.63 329.97 854.97 330.71 1114.97 74.44 1251.64 73.69 991.63"/><polygon class="cls-6" points="-60.73 914.02 195.55 777.36 329.97 854.97 73.69 991.63 -60.73 914.02"/><polygon class="cls-6" points="73.69 991.63 74.44 1251.64 -59.98 1174.03 -60.73 914.02 73.69 991.63"/></g><g class="cls-5"><polygon class="cls-6" points="72.49 569.55 328.76 432.89 329.51 693.27 73.23 829.93 72.49 569.55"/><polygon class="cls-6" points="-61.93 491.94 194.34 355.28 328.76 432.89 72.49 569.55 -61.93 491.94"/><polygon class="cls-6" points="72.49 569.55 73.23 829.93 -61.19 752.33 -61.93 491.94 72.49 569.55"/></g><g class="cls-5"><polygon class="cls-6" points="-62.39 330.62 193.88 193.96 194.34 355.28 -61.93 491.94 -62.39 330.62"/><polygon class="cls-6" points="-278.54 205.83 -22.26 69.17 193.88 193.96 -62.39 330.62 -278.54 205.83"/></g><g class="cls-5"><polygon class="cls-6" points="399.7 758.46 655.98 621.8 658.39 1465.59 402.11 1602.25 399.7 758.46"/><polygon class="cls-6" points="399.24 597.14 655.51 460.49 655.98 621.8 399.7 758.46 399.24 597.14"/><polygon class="cls-6" points="265.13 519.72 521.41 383.06 655.51 460.49 399.24 597.14 265.13 519.72"/><polygon class="cls-6" points="399.24 597.14 399.7 758.46 402.11 1602.25 268.01 1524.83 265.13 519.72 399.24 597.14"/></g><g class="cls-5"><polygon class="cls-6" points="615.7 722.12 871.97 585.46 872.43 746.78 616.16 883.44 615.7 722.12"/><polygon class="cls-6" points="399.24 597.14 655.51 460.49 871.97 585.46 615.7 722.12 399.24 597.14"/><polygon class="cls-6" points="615.7 722.12 616.16 883.44 399.7 758.46 399.24 597.14 615.7 722.12"/></g><g class="cls-5"><polygon class="cls-6" points="618.11 1565.53 874.38 1428.87 874.85 1590.56 618.57 1727.22 618.11 1565.53"/><polygon class="cls-6" points="401.65 1440.55 657.92 1303.89 874.38 1428.87 618.11 1565.53 401.65 1440.55"/><polygon class="cls-6" points="618.11 1565.53 618.57 1727.22 402.11 1602.25 401.65 1440.55 618.11 1565.53"/></g><g class="cls-5"><polygon class="cls-6" points="750.58 961.04 1006.85 824.38 1008.8 1506.47 752.53 1643.13 750.58 961.04"/><polygon class="cls-6" points="616.16 883.44 872.43 746.78 1006.85 824.38 750.58 961.04 616.16 883.44"/><polygon class="cls-6" points="750.58 961.04 752.53 1643.13 618.11 1565.53 616.16 883.44 750.58 961.04"/></g></g><g class="cls-4"><polygon class="cls-6" points="458.98 313.41 385.62 355.73 385.62 271.04 458.98 313.41"/><polygon class="cls-6" points="679.56 271.04 679.56 355.73 679.44 355.81 606.07 313.45 606.07 313.32 679.44 270.96 679.56 271.04"/><polygon class="cls-6" points="753.01 143.75 752.92 143.71 679.56 186.03 679.56 186.19 679.44 186.11 606.07 228.47 606.07 228.59 605.95 228.51 532.59 270.92 532.59 271.04 532.59 355.73 605.95 313.41 606.07 313.32 679.44 270.96 679.56 270.92 679.56 271.04 679.56 355.73 752.92 313.41 753.01 313.32 753.01 228.59 752.92 228.56 753.01 228.47 753.01 143.75"/><polygon class="cls-6" points="679.56 101.34 679.44 101.3 606.07 143.63 606.07 143.75 605.95 143.71 532.59 186.07 532.59 186.15 532.47 186.11 459.1 143.75 459.02 143.71 385.62 101.34 385.54 101.3 312.17 143.63 312.17 143.75 385.54 186.11 385.62 186.07 385.62 186.15 458.98 228.56 459.1 228.47 459.1 228.59 532.47 270.96 532.59 270.92 605.95 228.51 606.07 228.47 679.44 186.11 679.56 186.03 752.92 143.71 679.56 101.34"/><polygon class="cls-6" points="532.47 270.96 459.1 228.59 458.98 228.56 385.62 186.15 385.54 186.11 312.17 143.75 312.17 228.47 312.17 228.63 312.17 313.32 312.17 313.45 385.54 355.81 385.62 355.73 385.62 271.04 385.54 270.96 385.62 270.92 385.62 271.04 458.98 313.41 459.1 313.32 459.1 313.45 532.47 355.81 532.59 355.73 532.59 271.04 532.47 270.96"/></g><g class="cls-4"><g class="cls-5"><polygon class="cls-6" points="1285.47 1226.13 1503.92 1109.64 1504.29 1238.74 1285.84 1355.23 1285.47 1226.13"/><polygon class="cls-6" points="1170.89 1159.98 1389.35 1043.49 1503.92 1109.64 1285.47 1226.13 1170.89 1159.98"/><polygon class="cls-6" points="1285.47 1226.13 1285.84 1355.23 1171.26 1289.08 1170.89 1159.98 1285.47 1226.13"/></g><g class="cls-5"><polygon class="cls-6" points="1471.38 1913.92 1689.83 1797.43 1690.22 1935.26 1471.77 2051.75 1471.38 1913.92"/><polygon class="cls-6" points="1287.14 1807.55 1505.59 1691.06 1689.83 1797.43 1471.38 1913.92 1287.14 1807.55"/><polygon class="cls-6" points="1471.38 1913.92 1471.77 2051.75 1287.53 1945.37 1287.14 1807.55 1471.38 1913.92"/></g><g class="cls-5"><polygon class="cls-6" points="1286.77 1678.77 1505.22 1562.28 1505.59 1691.06 1287.14 1807.55 1286.77 1678.77"/><polygon class="cls-6" points="1172.19 1612.62 1390.64 1496.13 1505.22 1562.28 1286.77 1678.77 1172.19 1612.62"/><polygon class="cls-6" points="1286.77 1678.77 1287.14 1807.55 1172.56 1741.39 1172.19 1612.62 1286.77 1678.77"/></g><g class="cls-5"><polygon class="cls-6" points="1470.35 1554.46 1688.8 1437.97 1689.19 1575.8 1470.74 1692.29 1470.35 1554.46"/><polygon class="cls-6" points="1358.73 1490.01 1577.18 1373.52 1688.8 1437.97 1470.35 1554.46 1358.73 1490.01"/><polygon class="cls-6" points="1470.35 1554.46 1470.74 1692.29 1359.12 1627.84 1358.73 1490.01 1470.35 1554.46"/></g><g class="cls-5"><polygon class="cls-6" points="1585.32 1758.44 1803.77 1641.95 1804.4 1863.58 1585.95 1980.07 1585.32 1758.44"/><polygon class="cls-6" points="1470.74 1692.29 1689.19 1575.8 1803.77 1641.95 1585.32 1758.44 1470.74 1692.29"/><polygon class="cls-6" points="1585.32 1758.44 1585.95 1980.07 1471.38 1913.92 1470.74 1692.29 1585.32 1758.44"/></g><g class="cls-5"><polygon class="cls-6" points="1584.29 1398.66 1802.74 1282.17 1803.38 1504.12 1584.93 1620.61 1584.29 1398.66"/><polygon class="cls-6" points="1469.71 1332.51 1688.16 1216.02 1802.74 1282.17 1584.29 1398.66 1469.71 1332.51"/><polygon class="cls-6" points="1584.29 1398.66 1584.93 1620.61 1470.35 1554.46 1469.71 1332.51 1584.29 1398.66"/></g><g class="cls-5"><polygon class="cls-6" points="1469.32 1195 1687.77 1078.51 1688.16 1216.02 1469.71 1332.51 1469.32 1195"/><polygon class="cls-6" points="1285.08 1088.63 1503.53 972.14 1687.77 1078.51 1469.32 1195 1285.08 1088.63"/><polygon class="cls-6" points="1469.32 1195 1469.71 1332.51 1285.47 1226.13 1285.08 1088.63 1469.32 1195"/></g><g class="cls-5"><polygon class="cls-6" points="1863.21 1559.69 2081.66 1443.2 2083.71 2162.44 1865.26 2278.93 1863.21 1559.69"/><polygon class="cls-6" points="1862.82 1422.18 2081.27 1305.69 2081.66 1443.2 1863.21 1559.69 1862.82 1422.18"/><polygon class="cls-6" points="1748.51 1356.18 1966.96 1239.69 2081.27 1305.69 1862.82 1422.18 1748.51 1356.18"/><polygon class="cls-6" points="1862.82 1422.18 1863.21 1559.69 1865.26 2278.93 1750.95 2212.93 1748.51 1356.18 1862.82 1422.18"/></g><g class="cls-5"><polygon class="cls-6" points="1862.82 1422.18 2081.27 1305.69 2265.78 1412.22 2047.33 1528.71 1862.82 1422.18"/><polygon class="cls-6" points="2047.33 1528.71 2047.72 1666.21 1863.21 1559.69 1862.82 1422.18 2047.33 1528.71"/></g><g class="cls-5"><polygon class="cls-6" points="1864.87 2141.1 2083.32 2024.61 2267.83 2131.14 2049.38 2247.63 1864.87 2141.1"/><polygon class="cls-6" points="2049.38 2247.63 2049.77 2385.46 1865.26 2278.93 1864.87 2141.1 2049.38 2247.63"/></g></g><g class="cls-4"><polygon class="cls-6" points="1792.01 1214.41 1739.17 1244.9 1739.17 1183.9 1792.01 1214.41"/><polygon class="cls-6" points="1950.88 1183.9 1950.88 1244.9 1950.8 1244.95 1897.95 1214.44 1897.95 1214.36 1950.8 1183.84 1950.88 1183.9"/><polygon class="cls-6" points="2003.78 1092.21 2003.72 1092.18 1950.88 1122.67 1950.88 1122.79 1950.8 1122.73 1897.95 1153.24 1897.95 1153.33 1897.87 1153.27 1845.03 1183.81 1845.03 1183.9 1845.03 1244.9 1897.87 1214.41 1897.95 1214.36 1950.8 1183.84 1950.88 1183.81 1950.88 1183.9 1950.88 1244.9 2003.72 1214.41 2003.78 1214.36 2003.78 1153.33 2003.72 1153.3 2003.78 1153.24 2003.78 1092.21"/><polygon class="cls-6" points="1950.88 1061.67 1950.8 1061.64 1897.95 1092.13 1897.95 1092.21 1897.87 1092.18 1845.03 1122.7 1845.03 1122.76 1844.94 1122.73 1792.1 1092.21 1792.04 1092.18 1739.17 1061.67 1739.11 1061.64 1686.27 1092.13 1686.27 1092.21 1739.11 1122.73 1739.17 1122.7 1739.17 1122.76 1792.01 1153.3 1792.1 1153.24 1792.1 1153.33 1844.94 1183.84 1845.03 1183.81 1897.87 1153.27 1897.95 1153.24 1950.8 1122.73 1950.88 1122.67 2003.72 1092.18 1950.88 1061.67"/><polygon class="cls-6" points="1844.94 1183.84 1792.1 1153.33 1792.01 1153.3 1739.17 1122.76 1739.11 1122.73 1686.27 1092.21 1686.27 1153.24 1686.27 1153.36 1686.27 1214.36 1686.27 1214.44 1739.11 1244.95 1739.17 1244.9 1739.17 1183.9 1739.11 1183.84 1739.17 1183.81 1739.17 1183.9 1792.01 1214.41 1792.1 1214.36 1792.1 1214.44 1844.94 1244.95 1845.03 1244.9 1845.03 1183.9 1844.94 1183.84"/></g></g></svg>