<svg id="bg" xmlns="http://www.w3.org/2000/svg" xmlns:xlink="http://www.w3.org/1999/xlink" viewBox="0 0 1954.41 2278.93"><defs><style>.cls-1,.cls-5{fill:none;}.cls-2{clip-path:url(#clip-path);}.cls-3{opacity:0.5;}.cls-4{isolation:isolate;}.cls-5{stroke:#fff;stroke-linecap:round;stroke-linejoin:round;stroke-width:3px;}.cls-6{clip-path:url(#clip-path-2);}</style><clipPath id="clip-path"><rect class="cls-1" x="-0.15" y="-35.51" width="1954.71" height="2349.95"/></clipPath><clipPath id="clip-path-2"><rect class="cls-1" x="2038.87" width="1954.41" height="2278.93"/></clipPath></defs><g class="cls-2"><g class="cls-3"><g class="cls-4"><polygon class="cls-5" points="-188.78 402.66 67.49 266 67.93 417.45 -188.35 554.11 -188.78 402.66"/><polygon class="cls-5" points="-323.2 325.05 -66.93 188.39 67.49 266 -188.78 402.66 -323.2 325.05"/></g><g class="cls-4"><polygon class="cls-5" points="29.31 1209.54 285.58 1072.88 286.05 1234.58 29.77 1371.24 29.31 1209.54"/><polygon class="cls-5" points="-186.84 1084.75 69.44 948.09 285.58 1072.88 29.31 1209.54 -186.84 1084.75"/><polygon class="cls-5" points="29.31 1209.54 29.77 1371.24 -186.37 1246.44 -186.84 1084.75 29.31 1209.54"/></g><g class="cls-4"><polygon class="cls-5" points="-187.27 933.68 69.01 797.02 69.44 948.09 -186.84 1084.75 -187.27 933.68"/><polygon class="cls-5" points="-321.69 856.07 -65.41 719.41 69.01 797.02 -187.27 933.68 -321.69 856.07"/></g><g class="cls-4"><polygon class="cls-5" points="28.1 787.84 284.38 651.17 284.84 812.87 28.57 949.53 28.1 787.84"/><polygon class="cls-5" points="-102.84 712.23 153.43 575.57 284.38 651.17 28.1 787.84 -102.84 712.23"/><polygon class="cls-5" points="28.1 787.84 28.57 949.53 -102.38 873.93 -102.84 712.23 28.1 787.84"/></g><g class="cls-4"><polygon class="cls-5" points="162.99 1027.14 419.26 890.48 420 1150.48 163.73 1287.15 162.99 1027.14"/><polygon class="cls-5" points="28.57 949.53 284.84 812.87 419.26 890.48 162.99 1027.14 28.57 949.53"/><polygon class="cls-5" points="162.99 1027.14 163.73 1287.15 29.31 1209.54 28.57 949.53 162.99 1027.14"/></g><g class="cls-4"><polygon class="cls-5" points="161.78 605.06 418.06 468.4 418.8 728.78 162.52 865.44 161.78 605.06"/><polygon class="cls-5" points="27.36 527.45 283.64 390.79 418.06 468.4 161.78 605.06 27.36 527.45"/><polygon class="cls-5" points="161.78 605.06 162.52 865.44 28.1 787.84 27.36 527.45 161.78 605.06"/></g><g class="cls-4"><polygon class="cls-5" points="26.9 366.13 283.18 229.47 283.64 390.79 27.36 527.45 26.9 366.13"/><polygon class="cls-5" points="-189.25 241.34 67.03 104.68 283.18 229.47 26.9 366.13 -189.25 241.34"/><polygon class="cls-5" points="26.9 366.13 27.36 527.45 -188.78 402.66 -189.25 241.34 26.9 366.13"/></g><g class="cls-4"><polygon class="cls-5" points="488.99 793.97 745.27 657.31 747.68 1501.1 491.4 1637.76 488.99 793.97"/><polygon class="cls-5" points="488.53 632.66 744.81 496 745.27 657.31 488.99 793.97 488.53 632.66"/><polygon class="cls-5" points="354.43 555.23 610.7 418.57 744.81 496 488.53 632.66 354.43 555.23"/><polygon class="cls-5" points="488.53 632.66 488.99 793.97 491.4 1637.76 357.3 1560.34 354.43 555.23 488.53 632.66"/></g><g class="cls-4"><polygon class="cls-5" points="704.99 757.63 961.27 620.97 961.73 782.29 705.45 918.95 704.99 757.63"/><polygon class="cls-5" points="488.53 632.66 744.81 496 961.27 620.97 704.99 757.63 488.53 632.66"/><polygon class="cls-5" points="704.99 757.63 705.45 918.95 488.99 793.97 488.53 632.66 704.99 757.63"/></g><g class="cls-4"><polygon class="cls-5" points="707.4 1601.04 963.68 1464.38 964.14 1626.07 707.86 1762.73 707.4 1601.04"/><polygon class="cls-5" points="490.94 1476.06 747.22 1339.4 963.68 1464.38 707.4 1601.04 490.94 1476.06"/><polygon class="cls-5" points="707.4 1601.04 707.86 1762.73 491.4 1637.76 490.94 1476.06 707.4 1601.04"/></g><g class="cls-4"><polygon class="cls-5" points="839.87 996.55 1096.15 859.89 1098.1 1541.98 841.82 1678.64 839.87 996.55"/><polygon class="cls-5" points="705.45 918.95 961.73 782.29 1096.15 859.89 839.87 996.55 705.45 918.95"/><polygon class="cls-5" points="839.87 996.55 841.82 1678.64 707.4 1601.04 705.45 918.95 839.87 996.55"/></g></g><g class="cls-3"><polygon class="cls-5" points="537.6 376.7 464.24 419.03 464.24 334.34 537.6 376.7"/><polygon class="cls-5" points="758.18 334.34 758.18 419.03 758.06 419.11 684.7 376.74 684.7 376.62 758.06 334.26 758.18 334.34"/><polygon class="cls-5" points="831.63 207.04 831.55 207 758.18 249.33 758.18 249.49 758.06 249.41 684.7 291.77 684.7 291.89 684.57 291.81 611.21 334.22 611.21 334.34 611.21 419.03 684.57 376.7 684.7 376.62 758.06 334.26 758.18 334.22 758.18 334.34 758.18 419.03 831.55 376.7 831.63 376.62 831.63 291.89 831.55 291.85 831.63 291.77 831.63 207.04"/><polygon class="cls-5" points="758.18 164.64 758.06 164.6 684.7 206.92 684.7 207.04 684.57 207 611.21 249.37 611.21 249.45 611.09 249.41 537.72 207.04 537.64 207 464.24 164.64 464.16 164.6 390.79 206.92 390.79 207.04 464.16 249.41 464.24 249.37 464.24 249.45 537.6 291.85 537.72 291.77 537.72 291.89 611.09 334.26 611.21 334.22 684.57 291.81 684.7 291.77 758.06 249.41 758.18 249.33 831.55 207 758.18 164.64"/><polygon class="cls-5" points="611.09 334.26 537.72 291.89 537.6 291.85 464.24 249.45 464.16 249.41 390.79 207.04 390.79 291.77 390.79 291.93 390.79 376.62 390.79 376.74 464.16 419.11 464.24 419.03 464.24 334.34 464.16 334.26 464.24 334.22 464.24 334.34 537.6 376.7 537.72 376.62 537.72 376.74 611.09 419.11 611.21 419.03 611.21 334.34 611.09 334.26"/></g><g class="cls-3"><g class="cls-4"><polygon class="cls-5" points="1374.77 1261.64 1593.22 1145.15 1593.59 1274.25 1375.14 1390.74 1374.77 1261.64"/><polygon class="cls-5" points="1260.19 1195.49 1478.64 1079 1593.22 1145.15 1374.77 1261.64 1260.19 1195.49"/><polygon class="cls-5" points="1374.77 1261.64 1375.14 1390.74 1260.56 1324.59 1260.19 1195.49 1374.77 1261.64"/></g><g class="cls-4"><polygon class="cls-5" points="1560.67 1949.43 1779.12 1832.94 1779.51 1970.77 1561.06 2087.26 1560.67 1949.43"/><polygon class="cls-5" points="1376.43 1843.06 1594.88 1726.57 1779.12 1832.94 1560.67 1949.43 1376.43 1843.06"/><polygon class="cls-5" points="1560.67 1949.43 1561.06 2087.26 1376.82 1980.88 1376.43 1843.06 1560.67 1949.43"/></g><g class="cls-4"><polygon class="cls-5" points="1376.06 1714.28 1594.51 1597.79 1594.88 1726.57 1376.43 1843.06 1376.06 1714.28"/><polygon class="cls-5" points="1261.48 1648.13 1479.93 1531.64 1594.51 1597.79 1376.06 1714.28 1261.48 1648.13"/><polygon class="cls-5" points="1376.06 1714.28 1376.43 1843.06 1261.85 1776.9 1261.48 1648.13 1376.06 1714.28"/></g><g class="cls-4"><polygon class="cls-5" points="1559.64 1589.97 1778.09 1473.48 1778.48 1611.31 1560.04 1727.8 1559.64 1589.97"/><polygon class="cls-5" points="1448.02 1525.52 1666.47 1409.03 1778.09 1473.48 1559.64 1589.97 1448.02 1525.52"/><polygon class="cls-5" points="1559.64 1589.97 1560.04 1727.8 1448.41 1663.35 1448.02 1525.52 1559.64 1589.97"/></g><g class="cls-4"><polygon class="cls-5" points="1674.62 1793.95 1893.07 1677.46 1893.7 1899.09 1675.25 2015.58 1674.62 1793.95"/><polygon class="cls-5" points="1560.04 1727.8 1778.48 1611.31 1893.07 1677.46 1674.62 1793.95 1560.04 1727.8"/><polygon class="cls-5" points="1674.62 1793.95 1675.25 2015.58 1560.67 1949.43 1560.04 1727.8 1674.62 1793.95"/></g><g class="cls-4"><polygon class="cls-5" points="1673.59 1434.17 1892.04 1317.68 1892.67 1539.63 1674.22 1656.12 1673.59 1434.17"/><polygon class="cls-5" points="1559.01 1368.02 1777.46 1251.53 1892.04 1317.68 1673.59 1434.17 1559.01 1368.02"/><polygon class="cls-5" points="1673.59 1434.17 1674.22 1656.12 1559.64 1589.97 1559.01 1368.02 1673.59 1434.17"/></g><g class="cls-4"><polygon class="cls-5" points="1558.62 1230.51 1777.07 1114.02 1777.46 1251.53 1559.01 1368.02 1558.62 1230.51"/><polygon class="cls-5" points="1374.37 1124.14 1592.82 1007.65 1777.07 1114.02 1558.62 1230.51 1374.37 1124.14"/><polygon class="cls-5" points="1558.62 1230.51 1559.01 1368.02 1374.77 1261.64 1374.37 1124.14 1558.62 1230.51"/></g><g class="cls-4"><polygon class="cls-5" points="1952.5 1595.2 2170.95 1478.71 2173.01 2197.95 1954.56 2314.44 1952.5 1595.2"/><polygon class="cls-5" points="1952.11 1457.69 2170.56 1341.2 2170.95 1478.71 1952.5 1595.2 1952.11 1457.69"/><polygon class="cls-5" points="1837.8 1391.69 2056.25 1275.2 2170.56 1341.2 1952.11 1457.69 1837.8 1391.69"/><polygon class="cls-5" points="1952.11 1457.69 1952.5 1595.2 1954.56 2314.44 1840.25 2248.44 1837.8 1391.69 1952.11 1457.69"/></g><g class="cls-4"><polygon class="cls-5" points="1952.11 1457.69 2170.56 1341.2 2355.07 1447.73 2136.62 1564.22 1952.11 1457.69"/><polygon class="cls-5" points="2136.62 1564.22 2137.01 1701.72 1952.5 1595.2 1952.11 1457.69 2136.62 1564.22"/></g><g class="cls-4"><polygon class="cls-5" points="1954.16 2176.61 2172.61 2060.12 2357.12 2166.65 2138.67 2283.14 1954.16 2176.61"/><polygon class="cls-5" points="2138.67 2283.14 2139.07 2420.97 1954.56 2314.44 1954.16 2176.61 2138.67 2283.14"/></g></g><g class="cls-3"><polygon class="cls-5" points="1881.3 1249.92 1828.46 1280.41 1828.46 1219.41 1881.3 1249.92"/><polygon class="cls-5" points="2093.07 1127.72 2093.02 1127.69 2040.18 1158.18 2040.18 1158.3 2040.09 1158.24 1987.25 1188.75 1987.25 1188.84 1987.16 1188.78 1934.32 1219.32 1934.32 1219.41 1934.32 1280.41 1987.16 1249.92 1987.25 1249.87 2040.09 1219.35 2040.18 1219.32 2040.18 1219.41 2040.18 1280.41 2093.02 1249.92 2093.07 1249.87 2093.07 1188.84 2093.02 1188.81 2093.07 1188.75 2093.07 1127.72"/><polygon class="cls-5" points="2040.18 1097.18 2040.09 1097.15 1987.25 1127.64 1987.25 1127.72 1987.16 1127.69 1934.32 1158.21 1934.32 1158.27 1934.23 1158.24 1881.39 1127.72 1881.33 1127.69 1828.46 1097.18 1828.4 1097.15 1775.56 1127.64 1775.56 1127.72 1828.4 1158.24 1828.46 1158.21 1828.46 1158.27 1881.3 1188.81 1881.39 1188.75 1881.39 1188.84 1934.23 1219.35 1934.32 1219.32 1987.16 1188.78 1987.25 1188.75 2040.09 1158.24 2040.18 1158.18 2093.02 1127.69 2040.18 1097.18"/><polygon class="cls-5" points="1934.23 1219.35 1881.39 1188.84 1881.3 1188.81 1828.46 1158.27 1828.4 1158.24 1775.56 1127.72 1775.56 1188.75 1775.56 1188.87 1775.56 1249.87 1775.56 1249.95 1828.4 1280.46 1828.46 1280.41 1828.46 1219.41 1828.4 1219.35 1828.46 1219.32 1828.46 1219.41 1881.3 1249.92 1881.39 1249.87 1881.39 1249.95 1934.23 1280.46 1934.32 1280.41 1934.32 1219.41 1934.23 1219.35"/></g></g><g class="cls-6"><g class="cls-3"><g class="cls-4"><polygon class="cls-5" points="1760.79 367.15 2017.07 230.49 2017.5 381.94 1761.22 518.6 1760.79 367.15"/><polygon class="cls-5" points="1626.37 289.54 1882.65 152.88 2017.07 230.49 1760.79 367.15 1626.37 289.54"/><polygon class="cls-5" points="1760.79 367.15 1761.22 518.6 1626.8 440.99 1626.37 289.54 1760.79 367.15"/></g><g class="cls-4"><polygon class="cls-5" points="1762.74 1049.24 2019.02 912.58 2235.16 1037.37 1978.88 1174.03 1762.74 1049.24"/><polygon class="cls-5" points="1978.88 1174.03 1979.35 1335.73 1763.2 1210.93 1762.74 1049.24 1978.88 1174.03"/></g><g class="cls-4"><polygon class="cls-5" points="1762.31 898.17 2018.59 761.51 2019.02 912.58 1762.74 1049.24 1762.31 898.17"/><polygon class="cls-5" points="1627.89 820.56 1884.17 683.9 2018.59 761.51 1762.31 898.17 1627.89 820.56"/><polygon class="cls-5" points="1762.31 898.17 1762.74 1049.24 1628.32 971.63 1627.89 820.56 1762.31 898.17"/></g><g class="cls-4"><polygon class="cls-5" points="1846.73 676.72 2103.01 540.06 2233.96 615.66 1977.68 752.33 1846.73 676.72"/><polygon class="cls-5" points="1977.68 752.33 1978.14 914.02 1847.19 838.42 1846.73 676.72 1977.68 752.33"/></g><g class="cls-4"><polygon class="cls-5" points="1760.33 205.83 2016.61 69.17 2232.75 193.96 1976.47 330.62 1760.33 205.83"/><polygon class="cls-5" points="1976.47 330.62 1976.93 491.94 1760.79 367.15 1760.33 205.83 1976.47 330.62"/></g></g></g></svg>