<svg xmlns="http://www.w3.org/2000/svg" viewBox="0 0 23.59 23.21"><defs><style>.cls-1{fill:#fff;}</style></defs><g id="Logos"><path class="cls-1" d="M17.22,0H6.37A6.33,6.33,0,0,0,0,6.27V16.94a6.33,6.33,0,0,0,6.37,6.27H17.22a6.33,6.33,0,0,0,6.37-6.27V6.27A6.33,6.33,0,0,0,17.22,0m4.46,16.94a4.43,4.43,0,0,1-4.46,4.39H6.37a4.43,4.43,0,0,1-4.46-4.39V6.27A4.43,4.43,0,0,1,6.37,1.88H17.22a4.43,4.43,0,0,1,4.46,4.39Z"/><path class="cls-1" d="M17.08,10.79a5.13,5.13,0,0,0-1.5-2.91,5.22,5.22,0,0,0-3-1.47,5.75,5.75,0,0,0-1.55,0A5.27,5.27,0,0,0,7.59,8.46a5.1,5.1,0,0,0-1,3.86,5.18,5.18,0,0,0,2.08,3.42,5.31,5.31,0,0,0,3.14,1,5.24,5.24,0,0,0,.79-.05,5.31,5.31,0,0,0,3.47-2.05,5.16,5.16,0,0,0,1-3.87m-4.74,4.06a3.39,3.39,0,0,1-2.51-.62,3.31,3.31,0,0,1-1.34-2.18,3.26,3.26,0,0,1,.63-2.47,3.36,3.36,0,0,1,2.23-1.31,2.63,2.63,0,0,1,.49,0,2.81,2.81,0,0,1,.5,0,3.32,3.32,0,0,1,0,6.58"/><path class="cls-1" d="M18.43,5.07a1,1,0,0,0-.67-.27,1,1,0,0,0-.68.27,1,1,0,0,0-.27.67.94.94,0,0,0,.27.66,1,1,0,0,0,.68.27.94.94,0,0,0,.67-.27.91.91,0,0,0,.28-.66,1,1,0,0,0-.28-.67"/></g></svg>